<svg xmlns="http://www.w3.org/2000/svg" viewBox="0 0 256 256">
  <rect width="256" height="256" fill="none"/>
  <path fill="#25D366" d="M128,24A104,104,0,0,0,36.18,176.88L24.83,210.93a16,16,0,0,0,20.24,20.24l34.05-11.35A104,104,0,1,0,128,24Z"/>
  <path fill="#ffffff" d="M168,72H88A16,16,0,0,0,72,88v80a16,16,0,0,0,16,16h80a16,16,0,0,0,16-16V88A16,16,0,0,0,168,72Zm0,96H88V120h80ZM88,104V88h80v16Z"/>
  <circle fill="#ffffff" cx="112" cy="144" r="8"/>
  <circle fill="#ffffff" cx="144" cy="144" r="8"/>
</svg>
